<svg xmlns="http://www.w3.org/2000/svg" version="1.1" xmlns:xlink="http://www.w3.org/1999/xlink" xmlns:svgjs="http://svgjs.dev/svgjs" width="1000" height="204" viewBox="0 0 1000 204"><g transform="matrix(1,0,0,1,-0.6060606060606233,0.3318327618458454)"><svg viewBox="0 0 396 81" data-background-color="#7c4e29" preserveAspectRatio="xMidYMid meet" height="204" width="1000" xmlns="http://www.w3.org/2000/svg" xmlns:xlink="http://www.w3.org/1999/xlink"><g id="tight-bounds" transform="matrix(1,0,0,1,0.2400000000000091,-0.1317571260270256)"><svg viewBox="0 0 395.52 81.26351425205408" height="81.26351425205408" width="395.52"><g><svg viewBox="0 0 511.386689208297 105.06947690834647" height="81.26351425205408" width="395.52"><g transform="matrix(1,0,0,1,115.86668920829698,29.6666529648594)"><svg viewBox="0 0 395.52000000000004 45.736170978627676" height="45.736170978627676" width="395.52000000000004"><g id="textblocktransform"><svg viewBox="0 0 395.52000000000004 45.736170978627676" height="45.736170978627676" width="395.52000000000004" id="textblock"><g><svg viewBox="0 0 395.52000000000004 45.736170978627676" height="45.736170978627676" width="395.52000000000004"><g transform="matrix(1,0,0,1,0,0)"><svg width="395.52000000000004" viewBox="1.2 -36.18 325.53000000000003 37.64" height="45.736170978627676" data-palette-color="#e6b17e"><path d="M25.85-35.6L38.99-35.6 36.74 0.24 25.61 0.73 25.71-18.16 20.68-2.93 16.38-2.93 12.52-16.55 12.48-0.73 1.2-0.39 1.68-34.13 14.23-34.62 19.21-18.46 25.85-35.6ZM61.62-34.96L71.14-2.1 59.03-0.54 57.57-6.05 52-6.05 50.78-0.54 38.33-1.76 48.04-34.28 61.62-34.96ZM53.02-13.53L56.69-13.53 54.83-22.02 53.02-13.53ZM99.31-19.38L99.31-19.38Q99.31-15.97 98.43-13.22 97.55-10.47 95.98-8.34 94.4-6.2 92.23-4.66 90.06-3.13 87.47-2.14 84.88-1.15 81.97-0.67 79.05-0.2 75.97-0.2L75.97-0.2Q74.82-0.2 73.73-0.26 72.63-0.32 71.48-0.44L71.48-0.44 72.16-33.2Q74.85-34.06 77.69-34.41 80.54-34.77 83.34-34.77L83.34-34.77Q86.84-34.77 89.77-33.72 92.7-32.67 94.82-30.69 96.94-28.71 98.13-25.85 99.31-23 99.31-19.38ZM89.3-17.48L89.3-17.82Q89.33-19.14 89.02-20.36 88.72-21.58 88.02-22.52 87.32-23.46 86.25-24.04 85.18-24.61 83.69-24.66L83.69-24.66 82.71-9.52Q84.17-9.74 85.37-10.49 86.57-11.23 87.43-12.32 88.3-13.4 88.78-14.73 89.25-16.06 89.3-17.48L89.3-17.48ZM101.38-35.21L123.89-35.21Q123.75-32.91 123.63-30.66 123.5-28.42 123.31-26.12L123.31-26.12 112.96-25.59 112.71-22.51 119.99-22.51 119.45-14.94 112.13-14.7 111.88-11.13 117.94-11.13 122.23-11.13Q122.09-8.45 121.93-5.8 121.77-3.15 121.65-0.49L121.65-0.49 100.6 0 101.38-35.21ZM133.68-34.86L160.29-34.91 160.05-24.56 152.77-24.27 150.92-1.12 140.61-0.59 140.66-23.73 133.39-23.34 133.68-34.86ZM190.85-17.24L190.85-17.24Q190.85-15.01 190.34-12.95 189.83-10.89 188.86-9.08 187.9-7.28 186.52-5.77 185.14-4.27 183.42-3.2 181.7-2.12 179.67-1.53 177.65-0.93 175.38-0.93L175.38-0.93Q173.18-0.93 171.19-1.49 169.2-2.05 167.47-3.06 165.73-4.08 164.33-5.51 162.92-6.93 161.94-8.68 160.95-10.42 160.4-12.43 159.85-14.43 159.85-16.6L159.85-16.6Q159.85-18.73 160.36-20.76 160.87-22.8 161.84-24.61 162.8-26.42 164.17-27.93 165.54-29.44 167.23-30.54 168.93-31.64 170.91-32.25 172.89-32.86 175.08-32.86L175.08-32.86Q178.62-32.86 181.54-31.76 184.46-30.66 186.52-28.63 188.58-26.59 189.72-23.69 190.85-20.8 190.85-17.24ZM180.01-16.6L180.01-16.6Q180.01-17.65 179.71-18.64 179.4-19.63 178.82-20.4 178.23-21.17 177.37-21.64 176.5-22.12 175.38-22.12L175.38-22.12Q174.23-22.12 173.32-21.7 172.42-21.29 171.77-20.57 171.13-19.85 170.79-18.88 170.44-17.92 170.44-16.85L170.44-16.85Q170.44-15.82 170.74-14.79 171.03-13.77 171.62-12.94 172.2-12.11 173.07-11.6 173.94-11.08 175.08-11.08L175.08-11.08Q176.23-11.08 177.15-11.54 178.06-11.99 178.7-12.76 179.33-13.53 179.67-14.53 180.01-15.53 180.01-16.6ZM227.32-12.99L227.32-12.99Q227.32-9.64 226.16-7.14 225-4.64 222.99-2.98 220.98-1.32 218.28-0.49 215.58 0.34 212.48 0.34L212.48 0.34Q211.28 0.34 209.86 0.02 208.43-0.29 206.96-0.77 205.5-1.25 204.14-1.79 202.79-2.34 201.74-2.83L201.74-2.83 202.81-12.89Q204.89-11.65 207.41-11 209.94-10.35 212.38-10.35L212.38-10.35Q212.85-10.35 213.51-10.39 214.16-10.42 214.76-10.61 215.36-10.79 215.78-11.16 216.19-11.52 216.19-12.21L216.19-12.21Q216.19-12.67 215.9-13 215.61-13.33 215.14-13.54 214.68-13.75 214.09-13.85 213.51-13.96 212.94-14.01 212.38-14.06 211.89-14.06 211.41-14.06 211.11-14.06L211.11-14.06Q209.01-14.06 207.29-14.79 205.57-15.53 204.34-16.83 203.11-18.14 202.42-19.93 201.74-21.73 201.74-23.83L201.74-23.83Q201.74-26.71 202.9-28.99 204.06-31.27 206-32.87 207.94-34.47 210.45-35.33 212.97-36.18 215.65-36.18L215.65-36.18Q216.85-36.18 218.12-36.1 219.39-36.01 220.65-35.79 221.9-35.57 223.1-35.23 224.3-34.89 225.37-34.38L225.37-34.38 224.44-24.46Q222.78-25.02 220.96-25.4 219.15-25.78 217.41-25.78L217.41-25.78Q217.09-25.78 216.59-25.77 216.09-25.76 215.54-25.7 214.99-25.63 214.43-25.51 213.87-25.39 213.43-25.18 212.99-24.98 212.72-24.63 212.46-24.29 212.48-23.83L212.48-23.83Q212.5-23.29 212.88-22.96 213.26-22.63 213.86-22.45 214.46-22.27 215.18-22.19 215.9-22.12 216.61-22.11 217.31-22.09 217.92-22.11 218.53-22.12 218.93-22.07L218.93-22.07Q220.88-21.95 222.44-21.24 224-20.53 225.09-19.36 226.18-18.19 226.75-16.56 227.32-14.94 227.32-12.99ZM227.49-34.86L254.1-34.91 253.86-24.56 246.58-24.27 244.73-1.12 234.43-0.59 234.47-23.73 227.2-23.34 227.49-34.86ZM255.64-33.69L268.63-34.38 265.94-1.12 255.64-0.59 255.64-33.69ZM294.24-34.33L294.24-34.33 292.87-24.02Q292.16-24.22 291.45-24.29 290.74-24.37 290.04-24.37L290.04-24.37Q288.23-24.37 286.59-23.89 284.96-23.41 283.7-22.44 282.44-21.46 281.7-20 280.95-18.53 280.95-16.55L280.95-16.55Q280.95-15.28 281.36-14.36 281.76-13.43 282.49-12.82 283.22-12.21 284.23-11.91 285.23-11.62 286.42-11.62L286.42-11.62Q287.33-11.62 288.3-11.82 289.28-12.01 290.23-12.33 291.18-12.65 292.09-13.06 292.99-13.48 293.75-13.92L293.75-13.92 292.77-2.44Q291.82-1.95 290.71-1.57 289.6-1.2 288.42-0.92 287.25-0.63 286.08-0.49 284.91-0.34 283.83-0.34L283.83-0.34Q280.73-0.34 278.05-1.49 275.36-2.64 273.39-4.64 271.41-6.64 270.27-9.36 269.14-12.08 269.14-15.23L269.14-15.23Q269.14-19.41 270.33-23.11 271.53-26.81 273.85-29.59 276.17-32.37 279.6-33.98 283.03-35.6 287.5-35.6L287.5-35.6Q289.18-35.6 290.95-35.33 292.72-35.06 294.24-34.33ZM314.42-35.94L326.73-34.96 314.96-18.7 324.87-1.42 313.54 0.59 306.12-9.96 305.73 1.07 295.58 1.46 296.36-35.94 307.73-35.3 306.85-24.27 314.42-35.94Z" opacity="1" transform="matrix(1,0,0,1,0,0)" fill="#e6b17e" class="wordmark-text-0" data-fill-palette-color="primary" id="text-0"></path></svg></g></svg></g></svg></g></svg></g><g><svg viewBox="0 0 105.06947690834647 105.06947690834647" height="105.06947690834647" width="105.06947690834647"><g><svg></svg></g><g id="icon-0"><svg viewBox="0 0 105.06947690834647 105.06947690834647" height="105.06947690834647" width="105.06947690834647"><g><rect width="95.53539474444096" height="95.53539474444096" x="4.767041081952755" y="4.767041081952755" fill="#d9bca9" data-fill-palette-color="accent"></rect><rect width="95.53539474444096" height="95.53539474444096" x="9.534082163905511" y="-1.7763568394002505e-15" fill="#d9bca9" opacity="0.5" data-fill-palette-color="accent"></rect></g><g transform="matrix(1,0,0,1,37.22552870453351,13.620117377007873)"><svg viewBox="0 0 30.618419499279458 77.82924215433073" height="77.82924215433073" width="30.618419499279458"><g><svg xmlns="http://www.w3.org/2000/svg" data-name="Layer 1" viewBox="26.912751617758055 5.701891717487929 34.84936519650476 88.5839219384692" x="0" y="0" height="77.82924215433073" width="30.618419499279458" class="icon-z$-0" data-fill-palette-color="background" id="z$-0"><g data-name="Shape 91" fill="#7c4e29" data-fill-palette-color="background"><path class="cls-1" d="M43.71 16.32a15.52 15.52 0 0 1-0.78-2.4c-0.35-2.34 1.48-4.45 3.47-5.74a16.33 16.33 0 0 1 5.36-2.24c1.65-0.36 3.53-0.42 4.87 0.6a6.48 6.48 0 0 1 1.95 3.22c2.21 6.55 2.24 13.6 2.18 20.51-0.18 20-1 40.1 1 60a3.51 3.51 0 0 1-1.84 3.21 7.14 7.14 0 0 1-3.77 0.79 15.39 15.39 0 0 1-10.07-4.07 2.14 2.14 0 0 1-0.88-1.59c0.34-4.41-2.18-8.47-4.41-12.3-5.35-9.2-9.48-19-13.52-28.88-1.32-3.21 1.21-7 4.44-8.25a5.94 5.94 0 0 1 4.93 0c2.57 1.37 3 4.8 3.7 7.62 1 3.91 3.3 7.37 5.53 10.75L44.25 20.35a15.15 15.15 0 0 0-0.54-4m3.57-4.49a9.72 9.72 0 0 1 4.83-3A1.93 1.93 0 0 1 53.76 9c0.74 0.56 0.44 1.75-0.11 2.49a5.64 5.64 0 0 1-2.24 1.77 0.89 0.89 0 0 1-1 0 0.67 0.67 0 0 1 0.11-0.87 2.92 2.92 0 0 1 0.82-0.49 3.93 3.93 0 0 0 1.73-1.77 7 7 0 0 0-5.29 3.4 1.28 1.28 0 0 0-0.23 0.74 0.5 0.5 0 0 0 0.52 0.47c2-0.33 4-0.69 5.6-1.94 1.15-0.92 1.94-2.26 3.16-3.1a0.38 0.38 0 0 0 0.11-0.35 2.56 2.56 0 0 0-1.85-2.06 5.86 5.86 0 0 0-2.91 0 12.77 12.77 0 0 0-6.32 3.06 4.49 4.49 0 0 0-1.59 2.9 2.19 2.19 0 0 0 1.92 2.35 0.39 0.39 0 0 0 0.17 0c0.23-0.11 0.12-0.44 0-0.67a3.1 3.1 0 0 1 0.92-3M34.44 42.06A2.43 2.43 0 0 1 36 45.15a1.39 1.39 0 0 1-0.61 0.85 0.68 0.68 0 0 1-0.92-0.25c-0.2-0.48 0.35-1 0.35-1.47a1 1 0 0 0-1.14-0.79 2.35 2.35 0 0 0-1.28 0.87 3.34 3.34 0 0 0-1 2.05 1.46 1.46 0 0 0 1.38 1.54 7.51 7.51 0 0 0 4.2-1.18 6 6 0 0 0-0.41-0.93 1.2 1.2 0 0 1-0.07-1 0.56 0.56 0 0 1 0.84-0.24c0.13 0.12 0.17 0.31 0.3 0.43S38 45.14 38 45a10.44 10.44 0 0 0-0.48-2.56 3.52 3.52 0 0 0-1.62-2 4.49 4.49 0 0 0-3.45 0.1 6.45 6.45 0 0 0-2.85 1.74 5.24 5.24 0 0 0-0.64 1 4.64 4.64 0 0 0-0.47 1.26 3.5 3.5 0 0 0 1.82 3.7 4.83 4.83 0 0 1 2.56-5.94A2.7 2.7 0 0 1 34.44 42.06Z" fill="#7c4e29" data-fill-palette-color="background"></path></g></svg></g></svg></g></svg></g></svg></g></svg></g><defs></defs></svg><rect width="395.52" height="81.26351425205408" fill="none" stroke="none" visibility="hidden"></rect></g></svg></g></svg>