<svg xmlns="http://www.w3.org/2000/svg" version="1.1" xmlns:xlink="http://www.w3.org/1999/xlink" xmlns:svgjs="http://svgjs.dev/svgjs" width="1000" height="257" viewBox="0 0 1000 257"><g transform="matrix(1,0,0,1,-0.6060606060606801,-0.04635698403467359)"><svg viewBox="0 0 396 102" data-background-color="#7c4e29" preserveAspectRatio="xMidYMid meet" height="257" width="1000" xmlns="http://www.w3.org/2000/svg" xmlns:xlink="http://www.w3.org/1999/xlink"><g id="tight-bounds" transform="matrix(1,0,0,1,0.24000000000003752,0.018398491718045307)"><svg viewBox="0 0 395.5199999999999 101.96320301656392" height="101.96320301656392" width="395.5199999999999"><g><svg viewBox="0 0 552.6237712495512 142.463819224558" height="101.96320301656392" width="395.5199999999999"><g transform="matrix(1,0,0,1,157.1037712495512,40.22504736242472)"><svg viewBox="0 0 395.52 62.013724499708566" height="62.013724499708566" width="395.52"><g id="textblocktransform"><svg viewBox="0 0 395.52 62.013724499708566" height="62.013724499708566" width="395.52" id="textblock"><g><svg viewBox="0 0 395.52 62.013724499708566" height="62.013724499708566" width="395.52"><g transform="matrix(1,0,0,1,0,0)"><svg width="395.52" viewBox="-0.8500000238418579 -36 257.32000732421875 40.349998474121094" height="62.013724499708566" data-palette-color="#e6b17e"><path d="M-0.85 4.35L-0.85 4.35Q-0.55 3.65 0.8 0.68 2.15-2.3 4.33-7.08 6.5-11.85 9.22-17.93 11.95-24 15-30.8L15-30.8Q15.15-31.15 15.33-31.73 15.5-32.3 15.5-32.85L15.5-32.85Q15.5-33.4 15.18-33.77 14.85-34.15 13.8-34.15L13.8-34.15Q11.7-34.15 10.33-32.73 8.95-31.3 8.28-29.2 7.6-27.1 7.6-25.05L7.6-25.05Q7.6-24.55 7.63-24.2 7.65-23.85 7.7-23.5L7.7-23.5Q6.75-23.5 6.18-24.18 5.6-24.85 5.33-25.83 5.05-26.8 5.05-27.6L5.05-27.6Q5.05-29.25 5.95-30.75 6.85-32.25 8.28-33.45 9.7-34.65 11.43-35.33 13.15-36 14.8-36L14.8-36Q16.45-36 17.57-35.08 18.7-34.15 19.28-31.75 19.85-29.35 19.85-24.8L19.85-24.8Q19.85-21.7 19.63-18.2 19.4-14.7 19.15-11.3 18.9-7.9 18.8-5.1L18.8-5.1Q19.6-8.15 21.08-11.6 22.55-15.05 24.33-18.48 26.1-21.9 27.85-24.9 29.6-27.9 31-30.1 32.4-32.3 33.05-33.3L33.05-33.3Q33.75-34.3 34.25-34.83 34.75-35.35 35.55-35.35L35.55-35.35Q36.25-35.35 37.15-35L37.15-35Q36.8-34.1 36.18-32.33 35.55-30.55 34.9-28L34.9-28Q34.1-24.95 33.3-21.08 32.5-17.2 31.83-13.2 31.15-9.2 30.75-5.68 30.35-2.15 30.35 0.25L30.35 0.25Q30.35 1.35 30.45 1.95 30.55 2.55 30.73 3.03 30.9 3.5 31.1 4.35L31.1 4.35Q29.4 4.35 28.5 3.8 27.6 3.25 27.3 2.02 27 0.8 27-1.25L27-1.25Q27-7.2 28.53-14.03 30.05-20.85 32-28.2L32-28.2Q30.55-26.35 28.98-23.53 27.4-20.7 25.83-17.43 24.25-14.15 22.83-10.88 21.4-7.6 20.3-4.8 19.2-2 18.6-0.15L18.6-0.15Q18.3-0.05 18.2 0 18.1 0.05 17.85 0.05L17.85 0.05Q16.5 0.05 16.07-1.55 15.65-3.15 15.65-6.05L15.65-6.05Q15.65-8.1 15.78-10.93 15.9-13.75 16.05-16.75 16.2-19.75 16.32-22.53 16.45-25.3 16.45-27.3L16.45-27.3Q16.45-28.3 16.43-28.95 16.4-29.6 16.35-30.1L16.35-30.1Q12.35-20.8 9.65-14.23 6.95-7.65 5.13-3.55 3.3 0.55 1.9 2.45 0.5 4.35-0.85 4.35ZM39.35 2.35L39.35 2.35Q37.8 2.35 36.72 1.33 35.65 0.3 35.65-1.8L35.65-1.8Q35.65-3.6 36.45-5.68 37.25-7.75 38.65-9.78 40.05-11.8 41.82-13.48 43.6-15.15 45.57-16.15 47.55-17.15 49.5-17.15L49.5-17.15Q51.45-17.15 52.75-16.13 54.05-15.1 54.05-13.4L54.05-13.4Q54.05-12.15 53.37-11.7 52.7-11.25 51.6-11.25L51.6-11.25Q51.7-11.65 51.77-12.13 51.85-12.6 51.85-13L51.85-13Q51.85-14.15 51.3-14.98 50.75-15.8 49.4-15.8L49.4-15.8Q48-15.8 46.55-14.83 45.1-13.85 43.75-12.23 42.4-10.6 41.35-8.7 40.3-6.8 39.7-4.95 39.1-3.1 39.1-1.65L39.1-1.65Q39.1 0.3 40.45 0.3L40.45 0.3Q41.6 0.3 42.95-0.78 44.3-1.85 45.72-3.53 47.15-5.2 48.45-7 49.75-8.8 50.75-10.3L50.75-10.3Q50.95-10.6 51-10.6L51-10.6Q51.3-10.55 51.77-10.4 52.25-10.25 52.6-10 52.95-9.75 52.95-9.35L52.95-9.35Q52.95-8.9 52.5-8.13 52.05-7.35 51.5-6.35 50.95-5.35 50.5-4.33 50.05-3.3 50.05-2.4L50.05-2.4Q50.05-1.65 50.45-0.93 50.85-0.2 51.75-0.2L51.75-0.2Q53.1-0.2 55.3-2.18 57.5-4.15 59.75-8.1L59.75-8.1 60.25-7.6Q59.2-4.9 57.55-2.85 55.9-0.8 54.02 0.35 52.15 1.5 50.35 1.5L50.35 1.5Q48.5 1.5 47.62 0.4 46.75-0.7 46.75-2L46.75-2Q46.75-2.3 46.8-2.68 46.85-3.05 46.9-3.45L46.9-3.45Q44.75-0.55 42.97 0.9 41.2 2.35 39.35 2.35ZM61.7 1.5L61.7 1.5Q60.85 1.5 59.97 1.07 59.1 0.65 58.52-0.3 57.95-1.25 57.95-2.7L57.95-2.7Q57.95-4.35 58.75-6.4 59.55-8.45 60.9-10.48 62.25-12.5 64-14.23 65.75-15.95 67.65-16.98 69.55-18 71.4-18L71.4-18Q72.45-18 73.02-17.63 73.59-17.25 73.59-16.45L73.59-16.45Q73.59-16.25 73.57-16.1 73.55-15.95 73.5-15.75L73.5-15.75Q73.25-16.15 72.77-16.32 72.3-16.5 71.59-16.5L71.59-16.5Q70-16.5 68.47-15.53 66.95-14.55 65.67-12.98 64.4-11.4 63.45-9.6 62.5-7.8 61.97-6.13 61.45-4.45 61.45-3.3L61.45-3.3Q61.45-2.2 61.95-1.55 62.45-0.9 63.25-0.9L63.25-0.9Q64.59-0.9 66.52-2.6 68.45-4.3 70.45-7.4 72.45-10.5 74.05-14.65L74.05-14.65Q75.15-17.55 76.32-20.55 77.5-23.55 78.7-26.33 79.9-29.1 81.02-31.28 82.15-33.45 83.17-34.73 84.2-36 85-36L85-36Q85.4-36 85.7-35.68 86-35.35 86-34.85L86-34.85Q86-34.05 85.17-32.13 84.34-30.2 83.02-27.53 81.7-24.85 80.25-21.7 78.8-18.55 77.47-15.3 76.15-12.05 75.32-9.03 74.5-6 74.5-3.5L74.5-3.5Q74.5-2.1 74.65-1.4 74.8-0.7 75.65-0.7L75.65-0.7Q76.7-0.7 78.09-1.6 79.5-2.5 80.9-4.15 82.3-5.8 83.34-8.1L83.34-8.1 83.95-7.65Q83-5.1 81.34-3.08 79.7-1.05 77.82 0.13 75.95 1.3 74.25 1.3L74.25 1.3Q72.4 1.3 71.67 0.08 70.95-1.15 70.95-2.45L70.95-2.45Q70.95-3.3 71.2-4.7 71.45-6.1 71.9-7.8L71.9-7.8Q70.3-5.15 68.5-3.03 66.7-0.9 64.97 0.3 63.25 1.5 61.7 1.5ZM87.79 2.2L87.79 2.2Q84.74 2.2 83.22 0.53 81.69-1.15 81.69-3.6L81.69-3.6Q81.69-5.85 82.82-8.35 83.94-10.85 85.82-13.05 87.69-15.25 89.94-16.63 92.19-18 94.39-18L94.39-18Q95.54-18 96.52-17.4 97.49-16.8 97.49-14.95L97.49-14.95Q97.49-13.05 96.37-11.38 95.24-9.7 93.42-8.4 91.59-7.1 89.42-6.28 87.24-5.45 85.09-5.25L85.09-5.25Q84.99-4.75 84.94-4.3 84.89-3.85 84.89-3.45L84.89-3.45Q84.89-2.7 85.07-1.95 85.24-1.2 85.69-0.58 86.14 0.05 86.92 0.4 87.69 0.75 88.84 0.75L88.84 0.75Q90.99 0.75 93.09-0.48 95.19-1.7 96.99-3.7 98.79-5.7 100.04-8.1L100.04-8.1 100.64-7.65Q99.29-4.65 97.22-2.45 95.14-0.25 92.72 0.98 90.29 2.2 87.79 2.2ZM85.34-6.2L85.34-6.2Q86.69-6.65 88.39-7.53 90.09-8.4 91.67-9.6 93.24-10.8 94.27-12.25 95.29-13.7 95.29-15.3L95.29-15.3Q95.29-15.85 95.09-16.15 94.89-16.45 94.24-16.45L94.24-16.45Q93.04-16.45 91.69-15.53 90.34-14.6 89.09-13.1 87.84-11.6 86.84-9.8 85.84-8 85.34-6.2ZM121.39 4.35L121.39 4.35Q119.14 4.35 118.29 3.35 117.44 2.35 117.44 0.8L117.44 0.8Q117.44-0.65 118.04-2.65 118.64-4.65 119.29-6.5L119.29-6.5Q120.14-8.95 121.34-12.25 122.54-15.55 123.91-19.15 125.29-22.75 126.71-26.25 128.14-29.75 129.49-32.6L129.49-32.6Q126.04-32.55 123.71-32.45 121.39-32.35 119.54-32.18 117.69-32 115.49-31.6L115.49-31.6Q115.64-33.3 117.24-34.25 118.84-35.2 121.54-35.6 124.24-36 127.69-36L127.69-36Q131.14-36 133.86-35.73 136.59-35.45 138.99-35.2 141.39-34.95 143.79-34.9L143.79-34.9Q142.09-33.35 139.89-32.95 137.69-32.55 135.24-32.55L135.24-32.55Q134.69-32.55 134.09-32.58 133.49-32.6 132.89-32.6 132.29-32.6 131.69-32.6L131.69-32.6Q130.09-28.6 128.01-22.5 125.94-16.4 123.84-8.75L123.84-8.75Q123.14-6.1 122.56-4 121.99-1.9 121.66-0.15 121.34 1.6 121.34 3.25L121.34 3.25Q121.34 3.5 121.34 3.8 121.34 4.1 121.39 4.35ZM135.69 1.6L135.69 1.6Q133.54 1.6 132.64 0.28 131.74-1.05 131.74-2.95L131.74-2.95Q131.74-4.5 132.24-6.15 132.74-7.8 133.56-9.25 134.39-10.7 135.41-11.6 136.44-12.5 137.49-12.5L137.49-12.5Q137.74-12.5 138.01-12.43 138.29-12.35 138.54-12.25L138.54-12.25Q138.09-11.85 137.46-10.78 136.84-9.7 136.29-8.33 135.74-6.95 135.36-5.6 134.99-4.25 134.99-3.3L134.99-3.3Q134.99-1.8 135.49-1.13 135.99-0.45 136.79-0.45L136.79-0.45Q137.84-0.45 139.29-1.58 140.74-2.7 142.14-4.45L142.14-4.45Q140.74-5.6 139.96-7.48 139.19-9.35 139.19-11.3L139.19-11.3Q139.19-12.95 139.76-14.4 140.34-15.85 141.44-16.73 142.54-17.6 144.09-17.6L144.09-17.6Q146.14-17.6 146.84-16.5 147.54-15.4 147.54-13.75L147.54-13.75Q147.54-11.8 146.59-9.43 145.64-7.05 144.19-4.85L144.19-4.85Q145.09-4.35 146.09-4.35L146.09-4.35Q146.89-4.35 147.89-4.67 148.89-5 149.86-5.8 150.84-6.6 151.44-7.95L151.44-7.95 152.04-7.45Q151.04-5.1 149.21-4.13 147.39-3.15 145.74-3.15L145.74-3.15Q145.09-3.15 144.49-3.28 143.89-3.4 143.34-3.65L143.34-3.65Q141.64-1.4 139.61 0.1 137.59 1.6 135.69 1.6ZM143.04-5.75L143.04-5.75Q144.29-7.6 145.11-9.63 145.94-11.65 145.94-13.45L145.94-13.45Q145.94-14.9 145.51-15.58 145.09-16.25 144.44-16.25L144.44-16.25Q143.44-16.25 142.39-14.8 141.34-13.35 141.34-11.15L141.34-11.15Q141.34-9.7 141.76-8.22 142.19-6.75 143.04-5.75ZM173.63 4.35L173.63 4.35Q170.93 4.35 168.53 3.38 166.13 2.4 164.66 0.4 163.18-1.6 163.18-4.6L163.18-4.6Q163.18-7.2 164.21-8.65 165.23-10.1 166.73-10.7 168.23-11.3 169.58-11.3L169.58-11.3Q168.23-9.85 167.53-8.1 166.83-6.35 166.83-4.6L166.83-4.6Q166.83-2.75 167.66-1.15 168.48 0.45 170.18 1.43 171.88 2.4 174.48 2.4L174.48 2.4Q176.73 2.4 178.88 1.58 181.03 0.75 182.41-0.88 183.78-2.5 183.78-4.9L183.78-4.9Q183.78-7.05 182.68-8.6 181.58-10.15 179.86-11.35 178.13-12.55 176.18-13.65 174.23-14.75 172.51-15.98 170.78-17.2 169.68-18.8 168.58-20.4 168.58-22.65L168.58-22.65Q168.58-24.75 169.58-27.05 170.58-29.35 172.46-31.4 174.33-33.45 176.96-34.73 179.58-36 182.83-36L182.83-36Q185.78-36 186.93-34.58 188.08-33.15 188.08-31L188.08-31Q188.08-29.2 187.46-27.13 186.83-25.05 185.93-23.18 185.03-21.3 184.23-20L184.23-20Q183.33-20.2 182.96-20.78 182.58-21.35 182.58-22.15L182.58-22.15Q182.58-23.2 183.03-24.55 183.48-25.9 184.06-27.35 184.63-28.8 185.08-30.18 185.53-31.55 185.53-32.65L185.53-32.65Q185.53-33.65 184.93-34.23 184.33-34.8 182.73-34.8L182.73-34.8Q180.38-34.8 178.38-33.7 176.38-32.6 174.88-30.88 173.38-29.15 172.56-27.25 171.73-25.35 171.73-23.8L171.73-23.8Q171.73-21.95 172.81-20.63 173.88-19.3 175.58-18.23 177.28-17.15 179.21-16.07 181.13-15 182.83-13.7 184.53-12.4 185.61-10.63 186.68-8.85 186.68-6.3L186.68-6.3Q186.68-3.7 185.53-1.73 184.38 0.25 182.46 1.6 180.53 2.95 178.23 3.65 175.93 4.35 173.63 4.35ZM194.53 2.3L194.53 2.3Q192.38 2.3 191.23 1.05 190.08-0.2 190.08-2.65L190.08-2.65Q190.08-4.85 190.9-8.08 191.73-11.3 192.98-14.7L192.98-14.7Q192.48-14.8 192.03-14.88 191.58-14.95 191.18-15.1L191.18-15.1 191.18-16Q191.58-15.95 192.13-15.9 192.68-15.85 193.38-15.8L193.38-15.8Q194.43-18.5 195.63-21.03 196.83-23.55 198-25.53 199.18-27.5 200.25-28.68 201.33-29.85 202.08-29.85L202.08-29.85Q202.48-29.85 202.8-29.58 203.13-29.3 203.13-28.75L203.13-28.75Q203.13-27.9 202.08-25.98 201.03-24.05 199.48-21.4 197.93-18.75 196.48-15.65L196.48-15.65Q196.93-15.65 197.4-15.65 197.88-15.65 198.33-15.65L198.33-15.65Q199.98-15.65 201.8-15.7 203.63-15.75 205.48-15.95L205.48-15.95 205.48-15.05Q202.73-14.75 200.55-14.6 198.38-14.45 196.68-14.45L196.68-14.45Q196.48-14.45 196.3-14.45 196.13-14.45 195.93-14.45L195.93-14.45Q194.78-11.8 193.98-9 193.18-6.2 193.18-3.55L193.18-3.55Q193.18-1.4 193.83-0.48 194.48 0.45 195.98 0.45L195.98 0.45Q198.58 0.45 201.08-1.85 203.58-4.15 205.48-8.1L205.48-8.1 206.13-7.6Q204.93-4.8 203.1-2.55 201.28-0.3 199.08 1 196.88 2.3 194.53 2.3ZM208.13 1.3L208.13 1.3Q206.18 1.3 205.23 0.08 204.28-1.15 204.28-2.9L204.28-2.9Q204.28-4.05 204.7-5.8 205.13-7.55 205.83-9.47 206.53-11.4 207.45-13.1 208.38-14.8 209.43-15.88 210.48-16.95 211.48-16.95L211.48-16.95Q211.93-16.95 212.25-16.68 212.58-16.4 212.58-15.85L212.58-15.85Q212.58-15.25 211.8-13.9 211.03-12.55 209.98-10.8 208.93-9.05 208.15-7.13 207.38-5.2 207.38-3.45L207.38-3.45Q207.38-1.65 207.98-1.05 208.58-0.45 209.83-0.45L209.83-0.45Q211.53-0.45 213.45-2.15 215.38-3.85 217.53-8.1L217.53-8.1 217.98-7.6Q216.53-3.3 213.8-1 211.08 1.3 208.13 1.3ZM214.13-21.6L214.13-21.6Q213.33-21.6 212.7-22 212.08-22.4 212.08-23.25L212.08-23.25Q212.08-24.3 213.3-25.08 214.53-25.85 215.73-25.85L215.73-25.85Q216.48-25.85 216.93-25.5 217.38-25.15 217.38-24.3L217.38-24.3Q217.38-23.35 216.35-22.48 215.33-21.6 214.13-21.6ZM221.92 2.8L221.92 2.8Q219.52 2.8 217.92 1.2 216.32-0.4 216.32-3.6L216.32-3.6Q216.32-6.1 217.3-8.47 218.27-10.85 219.87-12.75 221.47-14.65 223.42-15.78 225.37-16.9 227.27-16.9L227.27-16.9Q229.32-16.9 230.07-15.7 230.82-14.5 230.82-13.2L230.82-13.2Q230.82-11.75 230.15-10.65 229.47-9.55 228.32-9.55L228.32-9.55Q227.47-9.55 226.87-10.3L226.87-10.3Q227.62-10.7 228.17-11.93 228.72-13.15 228.72-14.25L228.72-14.25Q228.72-14.85 228.5-15.18 228.27-15.5 227.62-15.5L227.62-15.5Q226.27-15.5 224.85-14.3 223.42-13.1 222.2-11.2 220.97-9.3 220.2-7.2 219.42-5.1 219.42-3.25L219.42-3.25Q219.42-1.7 220.17-0.4 220.92 0.9 223.07 0.9L223.07 0.9Q225.07 0.9 227.1-0.2 229.12-1.3 230.87-3.35 232.62-5.4 233.67-8.15L233.67-8.15 234.32-7.65Q233.17-4.65 231.17-2.27 229.17 0.1 226.77 1.45 224.37 2.8 221.92 2.8ZM247.57 1.9L247.57 1.9Q246.17 1.9 245.17 0.95 244.17 0 243.6-1.45 243.02-2.9 242.75-4.42 242.47-5.95 242.47-7.1L242.47-7.1Q243.02-7.1 244.07-7.38 245.12-7.65 246.22-8.22 247.32-8.8 248.1-9.73 248.87-10.65 248.87-11.9L248.87-11.9Q248.87-12.95 248.12-13.55 247.37-14.15 246.37-14.15L246.37-14.15Q244.82-14.15 243.47-13.08 242.12-12 241.05-10.28 239.97-8.55 239.12-6.6 238.27-4.65 237.67-2.9 237.07-1.15 236.67 0L236.67 0Q236.37 0.9 235.82 1.23 235.27 1.55 234.67 1.55L234.67 1.55Q233.82 1.55 233.45 0.85 233.07 0.15 233-0.93 232.92-2 232.92-3.15L232.92-3.15Q232.92-5.75 233.77-9.15 234.62-12.55 236.05-16.23 237.47-19.9 239.17-23.35 240.87-26.8 242.57-29.6 244.27-32.4 245.72-34.05 247.17-35.7 248.07-35.7L248.07-35.7Q248.77-35.7 249.2-34.75 249.62-33.8 249.62-32.45L249.62-32.45Q249.62-30.75 248.87-28.63 248.12-26.5 246.75-24.35 245.37-22.2 243.5-20.3 241.62-18.4 239.42-17.05L239.42-17.05Q237.77-13 236.95-9.18 236.12-5.35 236.12-2.75L236.12-2.75Q236.92-4.75 238.05-7.15 239.17-9.55 240.62-11.75 242.07-13.95 243.77-15.35 245.47-16.75 247.32-16.75L247.32-16.75Q249.17-16.75 250.47-15.45 251.77-14.15 251.77-12.3L251.77-12.3Q251.77-10.7 250.95-9.58 250.12-8.45 248.95-7.78 247.77-7.1 246.6-6.78 245.42-6.45 244.67-6.45L244.67-6.45Q244.72-6.05 244.97-5 245.22-3.95 245.7-2.8 246.17-1.65 246.87-0.83 247.57 0 248.57 0L248.57 0Q250.02 0 251.32-1.1 252.62-2.2 253.8-4.03 254.97-5.85 255.97-8.15L255.97-8.15 256.47-7.65Q255.77-5.2 254.32-3.03 252.87-0.85 251.1 0.53 249.32 1.9 247.57 1.9ZM240.27-19.05L240.27-19.05Q242.57-20.9 244.3-23.25 246.02-25.6 246.97-27.78 247.92-29.95 247.92-31.2L247.92-31.2Q247.92-31.45 247.9-31.55 247.87-31.65 247.77-31.65L247.77-31.65Q247.27-31.65 246.05-29.9 244.82-28.15 243.27-25.28 241.72-22.4 240.27-19.05Z" opacity="1" transform="matrix(1,0,0,1,0,0)" fill="#e6b17e" class="wordmark-text-0" data-fill-palette-color="primary" id="text-0"></path></svg></g></svg></g></svg></g></svg></g><g><svg viewBox="0 0 142.463819224558 142.463819224558" height="142.463819224558" width="142.463819224558"><g><svg></svg></g><g id="icon-0"><svg viewBox="0 0 142.463819224558 142.463819224558" height="142.463819224558" width="142.463819224558"><g><rect width="129.53654673936663" height="129.53654673936663" x="6.463636242595683" y="6.463636242595683" fill="#d9bca9" data-fill-palette-color="accent"></rect><rect width="129.53654673936663" height="129.53654673936663" x="12.92727248519137" y="-2.6645352591003757e-15" fill="#d9bca9" opacity="0.5" data-fill-palette-color="accent"></rect></g><g transform="matrix(1,0,0,1,50.474140136220655,18.467532121701964)"><svg viewBox="0 0 41.515538952116685 105.52875498115407" height="105.52875498115407" width="41.515538952116685"><g><svg xmlns="http://www.w3.org/2000/svg" data-name="Layer 1" viewBox="26.912752151489258 5.701892375946045 34.84935760498047 88.58392333984375" x="0" y="0" height="105.52875498115407" width="41.515538952116685" class="icon-s-0" data-fill-palette-color="background" id="s-0"><g data-name="Shape 91" fill="#7c4e29" data-fill-palette-color="background"><path class="cls-1" d="M43.71 16.32a15.52 15.52 0 0 1-0.78-2.4c-0.35-2.34 1.48-4.45 3.47-5.74a16.33 16.33 0 0 1 5.36-2.24c1.65-0.36 3.53-0.42 4.87 0.6a6.48 6.48 0 0 1 1.95 3.22c2.21 6.55 2.24 13.6 2.18 20.51-0.18 20-1 40.1 1 60a3.51 3.51 0 0 1-1.84 3.21 7.14 7.14 0 0 1-3.77 0.79 15.39 15.39 0 0 1-10.07-4.07 2.14 2.14 0 0 1-0.88-1.59c0.34-4.41-2.18-8.47-4.41-12.3-5.35-9.2-9.48-19-13.52-28.88-1.32-3.21 1.21-7 4.44-8.25a5.94 5.94 0 0 1 4.93 0c2.57 1.37 3 4.8 3.7 7.62 1 3.91 3.3 7.37 5.53 10.75L44.25 20.35a15.15 15.15 0 0 0-0.54-4m3.57-4.49a9.72 9.72 0 0 1 4.83-3A1.93 1.93 0 0 1 53.76 9c0.74 0.56 0.44 1.75-0.11 2.49a5.64 5.64 0 0 1-2.24 1.77 0.89 0.89 0 0 1-1 0 0.67 0.67 0 0 1 0.11-0.87 2.92 2.92 0 0 1 0.82-0.49 3.93 3.93 0 0 0 1.73-1.77 7 7 0 0 0-5.29 3.4 1.28 1.28 0 0 0-0.23 0.74 0.5 0.5 0 0 0 0.52 0.47c2-0.33 4-0.69 5.6-1.94 1.15-0.92 1.94-2.26 3.16-3.1a0.38 0.38 0 0 0 0.11-0.35 2.56 2.56 0 0 0-1.85-2.06 5.86 5.86 0 0 0-2.91 0 12.77 12.77 0 0 0-6.32 3.06 4.49 4.49 0 0 0-1.59 2.9 2.19 2.19 0 0 0 1.92 2.35 0.39 0.39 0 0 0 0.17 0c0.23-0.11 0.12-0.44 0-0.67a3.1 3.1 0 0 1 0.92-3M34.44 42.06A2.43 2.43 0 0 1 36 45.15a1.39 1.39 0 0 1-0.61 0.85 0.68 0.68 0 0 1-0.92-0.25c-0.2-0.48 0.35-1 0.35-1.47a1 1 0 0 0-1.14-0.79 2.35 2.35 0 0 0-1.28 0.87 3.34 3.34 0 0 0-1 2.05 1.46 1.46 0 0 0 1.38 1.54 7.51 7.51 0 0 0 4.2-1.18 6 6 0 0 0-0.41-0.93 1.2 1.2 0 0 1-0.07-1 0.56 0.56 0 0 1 0.84-0.24c0.13 0.12 0.17 0.31 0.3 0.43S38 45.14 38 45a10.44 10.44 0 0 0-0.48-2.56 3.52 3.52 0 0 0-1.62-2 4.49 4.49 0 0 0-3.45 0.1 6.45 6.45 0 0 0-2.85 1.74 5.24 5.24 0 0 0-0.64 1 4.64 4.64 0 0 0-0.47 1.26 3.5 3.5 0 0 0 1.82 3.7 4.83 4.83 0 0 1 2.56-5.94A2.7 2.7 0 0 1 34.44 42.06Z" fill="#7c4e29" data-fill-palette-color="background"></path></g></svg></g></svg></g></svg></g></svg></g></svg></g><defs></defs></svg><rect width="395.5199999999999" height="101.96320301656392" fill="none" stroke="none" visibility="hidden"></rect></g></svg></g></svg>